PathFileType	4	(X/Y/Z)	..\data\sprint.trc
DataRate	CameraRate	NumFrames	NumMarkers	Units	OrigDataRate	OrigDataStartFrame	OrigNumFrames
250.000000	250.000000	4	51	mm	250.000000	0	324
Frame#	Time	C7			RSH			LSH			MAN			T7			LARM			LELB			LFOREARM			LWR			RARM			RELB			RFOREARM			RWR			RASI			LASI			SACR			P1			P2			P3			LTHLP			LTHLD			LTHAP			LTHAD			LLEPI			LPAT			LTIAP			LTIAD			LTILAT			LLMAL			LHEEL			LMFS			LMFL			LP1MT			LTOE			LP5MT			RTHLP			RTHLD			RTHAP			RTHAD			RLEPI			RPAT			RTIAP			RTIAD			RTILAT			RLMAL			RHEEL			RMFS			RMFL			RP1MT			RTOE			RP5MT			
		X1	Y1	Z1	X2	Y2	Z2	X3	Y3	Z3	X4	Y4	Z4	X5	Y5	Z5	X6	Y6	Z6	X7	Y7	Z7	X8	Y8	Z8	X9	Y9	Z9	X10	Y10	Z10	X11	Y11	Z11	X12	Y12	Z12	X13	Y13	Z13	X14	Y14	Z14	X15	Y15	Z15	X16	Y16	Z16	X17	Y17	Z17	X18	Y18	Z18	X19	Y19	Z19	X20	Y20	Z20	X21	Y21	Z21	X22	Y22	Z22	X23	Y23	Z23	X24	Y24	Z24	X25	Y25	Z25	X26	Y26	Z26	X27	Y27	Z27	X28	Y28	Z28	X29	Y29	Z29	X30	Y30	Z30	X31	Y31	Z31	X32	Y32	Z32	X33	Y33	Z33	X34	Y34	Z34	X35	Y35	Z35	X36	Y36	Z36	X37	Y37	Z37	X38	Y38	Z38	X39	Y39	Z39	X40	Y40	Z40	X41	Y41	Z41	X42	Y42	Z42	X43	Y43	Z43	X44	Y44	Z44	X45	Y45	Z45	X46	Y46	Z46	X47	Y47	Z47	X48	Y48	Z48	X49	Y49	Z49	X50	Y50	Z50	X51	Y51	Z51	

1	0	-5971.802734375002	1494.5751953125	160.0383300781251	-5895.431640625002	1482.470703125	308.8639221191407	-5921.609375000002	1476.518676757813	-17.4027328491211	-5839.434570312502	1385.668090820313	137.0215454101563	-6053.853515625002	1304.779174804688	185.9928283691407	-6066.380371093752	1407.175903320313	-118.5349426269532	-6218.220214843754	1386.329467773438	-153.1929779052735	-6294.064941406254	1258.402954101563	-148.2081604003907	-6386.766113281254	1163.001586914063	-139.6151123046876	-5794.385742187502	1326.940307617188	400.3653869628909	-5712.294433593752	1219.14013671875	439.5959167480471	-5602.210449218752	1289.8291015625	370.5386657714845	-5508.511230468752	1345.562377929688	304.0095214843751	-5896.926269531252	986.0546875000005	278.5527343750001	-5887.331542968752	1008.661376953125	65.14350891113284	-6070.845214843752	1073.213989257813	174.4122314453126	-6084.997070312502	1045.858276367188	120.0553054809571	-6089.650390625002	1048.151733398438	226.1389160156251	-6123.412597656252	996.4929809570317	169.8900604248047	-5791.471679687502	851.283569335938	-10.19532489776612	-5680.339843750002	822.8952636718755	12.0699052810669	-5745.154785156252	966.2751464843755	79.34786224365237	-5638.410644531252	923.4561157226567	90.08035278320315	-5590.727050781252	780.426391601563	51.37018585205081	-5513.816894531252	823.262329101563	116.3456726074219	-5639.014648437502	639.3084106445315	137.2980957031251	-5729.630371093752	533.4641113281252	143.0721740722657	-5726.971679687502	614.6654052734377	68.78303527832034	-5845.581054687502	434.5115661621096	99.42549133300787	-5925.882812500002	438.4107971191409	152.4004669189454	-5765.493164062502	368.9025878906251	137.0149993896485	-5811.773437500002	368.1331481933595	77.52375793457034	-5751.158203125002	276.7847290039064	150.2773437500001	-5714.099609375002	285.5715942382814	111.9938049316407	-5790.293945312502	300.060028076172	34.09361267089845	-6132.374023437502	773.729614257813	355.273895263672	-6189.633789062504	676.8406372070315	341.033172607422	-6027.758300781252	685.5329589843752	299.9324645996095	-6092.769531250002	608.104187011719	290.2629699707032	-6287.475585937504	561.2510375976565	310.5589294433595	-6202.484375000004	509.0556335449221	284.7844238281251	-6399.692871093754	393.0695495605471	232.1970520019532	-6513.524902343754	309.8515014648439	202.6873321533204	-6470.445312500004	425.8188476562502	291.0835571289064	-6632.090332031254	250.0316009521486	248.411102294922	-6680.471679687504	294.0357971191407	194.0745086669923	-6561.077148437504	153.5753936767579	210.9557189941407	-6638.056152343754	165.5272521972657	247.3059997558595	-6590.637695312504	87.27354431152347	144.8237609863282	-6551.384277343754	85.31571197509768	190.7452850341797	-6639.173339843754	82.54010772705081	265.9002380371095	
2	0.004	-5934.799804687502	1492.694213867188	160.7618103027344	-5860.034667968752	1483.42138671875	305.9342346191407	-5885.840820312502	1477.818359375	-16.95564270019532	-5803.294433593752	1386.0166015625	134.7910156250001	-6014.675781250002	1302.776123046875	188.7135314941407	-6034.783203125002	1417.363891601563	-114.6657333374024	-6184.146484375004	1399.9892578125	-147.4962463378907	-6256.018554687504	1270.845825195313	-145.9137573242188	-6354.012695312504	1177.946533203125	-138.4615783691407	-5750.691406250002	1334.538696289063	397.3680725097659	-5666.421386718752	1228.613891601563	437.7831115722659	-5563.044433593752	1306.748901367188	367.8425292968751	-5474.941406250002	1369.427734375	300.8066711425782	-5857.739746093752	984.0999145507817	277.3707885742189	-5848.614746093752	1007.161926269532	65.37761688232425	-6030.339843750002	1073.19189453125	178.1728210449219	-6045.432617187502	1045.862548828125	124.1337280273438	-6049.658203125002	1049.138916015625	230.1763153076173	-6085.406738281252	998.542846679688	174.2357025146485	-5740.190917968752	853.8303833007817	-6.082039356231693	-5639.667480468752	826.9067382812505	13.65528392791749	-5707.257812500002	968.8029174804692	81.94649505615237	-5599.958984375002	928.2287597656255	89.99288177490237	-5549.460937500002	786.0249023437505	52.47258758544925	-5473.285156250002	831.851196289063	117.5054397583008	-5587.846679687502	640.388122558594	134.5986938476563	-5669.020507812502	528.0836181640627	141.4731903076172	-5673.597167968752	610.518493652344	67.74102783203128	-5776.564453125002	420.3831176757815	97.53402709960943	-5857.359375000002	418.8558044433596	149.3103637695313	-5691.259277343752	360.3826599121095	138.3736267089844	-5736.758789062502	357.0381469726564	76.97104644775393	-5669.744140625002	270.0943908691407	149.5697937011719	-5637.773925781252	280.2317199707032	111.4387435913087	-5710.144531250002	293.5416564941407	33.70877838134767	-6098.212890625002	778.7647094726567	355.3518981933595	-6159.395996093754	684.711608886719	338.9334106445314	-5997.886230468752	687.6282958984377	297.0315246582032	-6066.951660156252	613.3123168945315	286.1920166015626	-6262.296875000004	576.5228271484377	307.7163085937501	-6177.851074218754	519.2039794921877	277.9868774414064	-6375.702148437504	404.5729064941409	234.4834136962892	-6490.170410156254	320.305633544922	207.8882904052736	-6447.313964843754	441.1477050781252	291.9286499023439	-6609.503906250004	263.5423278808595	256.8545227050782	-6652.881835937504	312.2321166992189	202.3392181396486	-6567.341308593754	158.9730987548829	205.6246337890626	-6623.220703125004	179.1415252685547	253.2882080078126	-6587.336914062504	97.55252075195318	149.6604156494141	-6566.086425781254	83.60079193115237	187.3131103515626	-6637.275878906254	95.42312622070315	267.8597717285157	
3	0.008	-5897.757812500002	1490.478515625	161.6150817871094	-5824.798339843752	1484.190185546875	303.3542785644532	-5849.743652343752	1478.857788085938	-16.45125198364259	-5766.619140625002	1385.158081054688	133.4262390136719	-5976.153320312502	1300.98388671875	190.8498992919922	-6001.804199218752	1426.619384765625	-109.9360580444337	-6150.345703125004	1412.490844726563	-140.0563964843751	-6223.966796875004	1285.6708984375	-144.0154113769532	-6322.680175781254	1193.041015625	-137.8127593994141	-5707.799316406252	1341.49560546875	394.5263977050784	-5621.599609375002	1237.645263671875	436.373718261719	-5525.318359375002	1322.388305664063	366.1860961914064	-5442.910644531252	1391.306396484375	298.2518615722657	-5817.962890625002	982.6892089843755	278.0274658203126	-5810.910644531252	1005.500427246094	66.2714538574219	-5990.533203125002	1072.970703125	181.1700897216797	-6006.851074218752	1045.45751953125	127.6233978271485	-6010.575683593752	1050.324340820313	233.5930633544923	-6048.441894531252	1000.574890136719	178.2954864501954	-5710.325683593752	853.2843627929692	-6.007186412811283	-5599.787597656252	829.6516723632817	15.08577156066895	-5669.515625000002	969.654907226563	84.00803375244143	-5562.137207031252	931.4873046875005	90.10086059570315	-5508.837402343752	790.106323242188	53.30859756469729	-5434.455078125002	838.511596679688	118.574562072754	-5535.462402343752	641.2036132812502	133.6235656738282	-5608.728515625002	522.7869262695315	140.0399475097657	-5616.764648437502	604.8056640625002	67.27002716064456	-5710.204101562502	407.0688171386721	94.84028625488284	-5788.561035156252	399.8844909667971	146.626693725586	-5619.365234375002	352.6173095703126	137.9674682617188	-5664.637695312502	346.3927001953126	75.17846679687503	-5591.002441406252	264.6384887695314	150.6179351806641	-5559.050292968752	277.5971679687501	114.2147445678712	-5644.650390625002	288.6853027343751	30.42946243286134	-6063.759765625002	783.7595825195317	355.5060119628907	-6128.124511718752	692.5433349609377	336.234100341797	-5967.351074218752	690.118103027344	294.3934020996095	-6038.711914062502	619.4792480468752	280.8274536132814	-6234.575683593754	589.145690917969	305.2734375000001	-6151.712890625004	525.4091796875002	273.5554199218751	-6351.441406250004	416.4508972167971	235.2705535888673	-6458.536621093754	331.3300781250001	215.5619659423829	-6421.317871093754	455.6752624511721	292.5073242187501	-6582.514648437504	278.8410034179689	261.8833618164064	-6624.346191406254	332.5053710937501	209.9461059570314	-6553.125000000004	173.5437774658204	210.8021087646486	-6606.991210937504	196.3853149414064	258.903289794922	-6579.773925781254	110.9783325195313	156.3502807617188	-6540.682128906254	96.32511901855474	209.8915405273439	-6633.005859375004	111.8485794067383	271.080535888672	
4	0.012	-5860.658691406252	1488.89208984375	162.0597686767579	-5789.277832031252	1484.779296875	301.2584228515626	-5813.277832031252	1479.39501953125	-15.87173080444337	-5729.993164062502	1384.37646484375	131.6468658447266	-5938.149414062502	1299.632202148438	192.5228424072267	-5971.540039062502	1436.276123046875	-105.1633758544922	-6115.748535156252	1424.832153320313	-132.9324188232422	-6190.868164062504	1298.8525390625	-141.8012237548829	-6300.761230468754	1210.079345703125	-139.3166656494141	-5666.252929687502	1347.19921875	392.1217041015627	-5578.244140625002	1246.0078125	435.3591003417971	-5488.709472656252	1336.4521484375	364.5377197265626	-5411.768554687502	1410.739990234375	295.9690551757814	-5779.941894531252	981.8463745117192	279.277313232422	-5773.600097656252	1005.232543945313	67.30429840087893	-5951.483886718752	1072.351806640625	182.9978637695313	-5969.228027343752	1044.679077148438	130.0135040283204	-5972.172851562502	1051.06591796875	235.8437347412111	-6012.003906250002	1002.168212890625	181.4062652587891	-5651.472167968752	856.562622070313	-16.65199851989747	-5555.801757812502	831.8790893554692	13.72214889526368	-5631.435546875002	970.1730346679692	85.78321075439456	-5524.371582031252	933.0021362304692	90.64922332763675	-5468.725585937502	792.361694335938	53.81082153320315	-5396.639648437502	843.0248413085942	119.7884368896485	-5484.568847656252	641.055603027344	132.8392944335938	-5549.054199218752	517.536071777344	138.6157379150391	-5564.651855468752	598.476745605469	65.255973815918	-5650.270507812502	394.0665588378909	90.52179718017581	-5719.755859375002	381.2543334960939	144.1626586914063	-5547.977050781252	345.7978515625001	137.3383789062501	-5591.302246093752	335.7598571777345	74.92729187011722	-5513.292480468752	261.2737731933595	152.1198425292969	-5511.062500000002	268.8237304687501	98.67222595214849	-5552.696289062502	278.1162719726564	34.4853858947754	-6028.909179687502	788.2278442382817	355.721649169922	-6095.816406250002	699.8682861328127	333.6069641113282	-5935.807128906252	692.6475830078127	291.4932556152345	-6009.198730468752	625.8016357421877	275.3126831054689	-6203.671875000004	598.036315917969	304.0426025390626	-6131.825195312502	529.037292480469	261.5484008789064	-6325.926269531254	428.5688171386721	235.3675689697267	-6443.510742187504	348.6204833984376	213.6740722656251	-6392.109863281254	468.6564025878909	294.0322265625001	-6559.332031250004	298.4957275390626	266.1072692871095	-6596.487304687504	354.7116699218751	214.1934967041017	-6534.743652343754	192.0210266113282	218.1528778076173	-6588.855468750004	217.5910644531251	264.1875610351564	-6570.094726562504	123.7192306518555	164.2161560058594	-6559.665039062504	101.870460510254	208.969451904297	-6626.272949218754	132.0317535400391	275.5303039550782	
